<svg width="32" height="32" viewBox="0 0 32 32" xmlns="http://www.w3.org/2000/svg">

  <!-- Orbital ring -->
  <ellipse cx="16" cy="16" rx="13" ry="4" fill="none" stroke="#A8D5BE" stroke-width="1" opacity="0.8" transform="rotate(-12 16 16)"/>
  <circle cx="4.5" cy="14" r="1.2" fill="#A8D5BE" opacity="0.8" transform="rotate(-12 16 16)"/>
  <circle cx="27.5" cy="18" r="0.9" fill="#A8D5BE" opacity="0.7" transform="rotate(-12 16 16)"/>

  <!-- Device body -->
  <rect x="6" y="5" width="20" height="18" rx="3.5" fill="#F2EDE4" stroke="#C8BCA8" stroke-width="0.8"/>

  <!-- Screen -->
  <rect x="8.5" y="7.5" width="15" height="11" rx="2" fill="#2A4A3C"/>

  <!-- Person silhouette -->
  <circle cx="16" cy="11" r="2.5" fill="#5BBFA0"/>
  <path d="M12 18 Q14 15 16 14.5 Q18 15 20 18 Q18 18.8 16 19 Q14 18.8 12 18Z" fill="#5BBFA0" opacity="0.8"/>

  <!-- Speaker dots -->
  <circle cx="12" cy="25.5" r="0.9" fill="#8CC4AF" opacity="0.8"/>
  <circle cx="16" cy="25.5" r="0.9" fill="#D4B896" opacity="0.8"/>
  <circle cx="20" cy="25.5" r="0.9" fill="#8CC4AF" opacity="0.7"/>

  <!-- Stand nub -->
  <rect x="13" y="23.5" width="6" height="2" rx="1" fill="#DDD8CE" stroke="#C8BCA8" stroke-width="0.5"/>

</svg>
