<svg width="400" height="400" viewBox="0 0 400 400" xmlns="http://www.w3.org/2000/svg">
  <defs>
    <radialGradient id="bg-glow" cx="50%" cy="50%" r="55%">
      <stop offset="0%" stop-color="#E8F7F0" stop-opacity="0.6"/>
      <stop offset="100%" stop-color="#F5F0E8" stop-opacity="0"/>
    </radialGradient>
  </defs>

  <!-- Subtle background warmth -->
  <ellipse cx="200" cy="200" rx="180" ry="180" fill="url(#bg-glow)"/>

  <!-- Outer orbital ring -->
  <ellipse cx="200" cy="200" rx="148" ry="38" fill="none" stroke="#A8D5BE" stroke-width="1.2" opacity="0.55" transform="rotate(-12 200 200)"/>
  <circle cx="70" cy="177" r="4" fill="#A8D5BE" opacity="0.7" transform="rotate(-12 200 200)"/>
  <circle cx="330" cy="223" r="3" fill="#A8D5BE" opacity="0.5" transform="rotate(-12 200 200)"/>
  <circle cx="208" cy="161" r="2.5" fill="#C5E8D8" opacity="0.6" transform="rotate(-12 200 200)"/>

  <!-- Secondary inner orbital ring -->
  <ellipse cx="200" cy="200" rx="100" ry="26" fill="none" stroke="#D4B896" stroke-width="0.8" opacity="0.4" transform="rotate(8 200 200)"/>
  <circle cx="105" cy="205" r="3" fill="#D4B896" opacity="0.5" transform="rotate(8 200 200)"/>

  <!-- Device body -->
  <rect x="134" y="138" width="132" height="124" rx="18" fill="#F2EDE4" stroke="#C8BCA8" stroke-width="1.2"/>
  <!-- Screen inset -->
  <rect x="144" y="148" width="112" height="84" rx="10" fill="#2A4A3C" stroke="#1C3328" stroke-width="0.8"/>
  <rect x="144" y="148" width="112" height="84" rx="10" fill="none" stroke="#6BBFA0" stroke-width="0.5" opacity="0.4"/>

  <!-- Person silhouette on screen -->
  <circle cx="200" cy="172" r="11" fill="#5BBFA0" opacity="0.9"/>
  <path d="M182 205 Q190 192 200 190 Q210 192 218 205 Q210 210 200 211 Q190 210 182 205Z" fill="#5BBFA0" opacity="0.75"/>

  <!-- Screen shine -->
  <path d="M150 152 Q156 148 166 150 Q158 162 152 158Z" fill="white" opacity="0.12"/>

  <!-- Control dots -->
  <circle cx="176" cy="243" r="3.5" fill="#8CC4AF" opacity="0.7"/>
  <circle cx="190" cy="243" r="3.5" fill="#D4B896" opacity="0.7"/>
  <circle cx="204" cy="243" r="3.5" fill="#8CC4AF" opacity="0.5"/>
  <circle cx="218" cy="243" r="3.5" fill="#E8C4A0" opacity="0.5"/>

  <!-- Speaker grille -->
  <line x1="163" y1="253" x2="163" y2="259" stroke="#C8BCA8" stroke-width="1.5" stroke-linecap="round"/>
  <line x1="169" y1="251" x2="169" y2="261" stroke="#C8BCA8" stroke-width="1.5" stroke-linecap="round"/>
  <line x1="175" y1="250" x2="175" y2="262" stroke="#C8BCA8" stroke-width="1.5" stroke-linecap="round"/>
  <line x1="181" y1="250" x2="181" y2="262" stroke="#C8BCA8" stroke-width="1.5" stroke-linecap="round"/>
  <line x1="187" y1="251" x2="187" y2="261" stroke="#C8BCA8" stroke-width="1.5" stroke-linecap="round"/>
  <line x1="193" y1="251" x2="193" y2="261" stroke="#C8BCA8" stroke-width="1.5" stroke-linecap="round"/>
  <line x1="199" y1="250" x2="199" y2="262" stroke="#C8BCA8" stroke-width="1.5" stroke-linecap="round"/>
  <line x1="205" y1="250" x2="205" y2="262" stroke="#C8BCA8" stroke-width="1.5" stroke-linecap="round"/>
  <line x1="211" y1="251" x2="211" y2="261" stroke="#C8BCA8" stroke-width="1.5" stroke-linecap="round"/>
  <line x1="217" y1="251" x2="217" y2="261" stroke="#C8BCA8" stroke-width="1.5" stroke-linecap="round"/>
  <line x1="223" y1="252" x2="223" y2="260" stroke="#C8BCA8" stroke-width="1.5" stroke-linecap="round"/>
  <line x1="229" y1="253" x2="229" y2="259" stroke="#C8BCA8" stroke-width="1.5" stroke-linecap="round"/>
  <line x1="235" y1="254" x2="235" y2="258" stroke="#C8BCA8" stroke-width="1.5" stroke-linecap="round"/>

  <!-- Stand -->
  <path d="M176 262 Q182 274 190 278 L210 278 Q218 274 224 262Z" fill="#DDD8CE" stroke="#C8BCA8" stroke-width="0.8"/>
  <rect x="186" y="278" width="28" height="5" rx="2.5" fill="#C8BCA8"/>

  <!-- Atomic decoration — top left -->
  <circle cx="72" cy="96" r="5" fill="none" stroke="#D4B896" stroke-width="1" opacity="0.5"/>
  <circle cx="72" cy="96" r="1.5" fill="#D4B896" opacity="0.5"/>
  <line x1="72" y1="83" x2="72" y2="109" stroke="#D4B896" stroke-width="0.6" opacity="0.35"/>
  <line x1="59" y1="96" x2="85" y2="96" stroke="#D4B896" stroke-width="0.6" opacity="0.35"/>
  <ellipse cx="72" cy="96" rx="18" ry="7" fill="none" stroke="#D4B896" stroke-width="0.6" opacity="0.35" transform="rotate(30 72 96)"/>

  <!-- Atomic decoration — bottom right -->
  <circle cx="328" cy="308" r="4" fill="none" stroke="#A8D5BE" stroke-width="1" opacity="0.45"/>
  <circle cx="328" cy="308" r="1.5" fill="#A8D5BE" opacity="0.45"/>
  <ellipse cx="328" cy="308" rx="15" ry="6" fill="none" stroke="#A8D5BE" stroke-width="0.6" opacity="0.3" transform="rotate(-20 328 308)"/>
</svg>
